:FULLY-SPECIFIED
:FORCE-ALL-JOINTS-BE-3DOF
:DEGREES
3160
root 0.947088 16.9255 -33.3592 1085.99 5.03505 -3.95371
lfemur -18.3494 -2.58459 -8.16239
ltibia 35.0885 0 0
lfoot -16.3361 7.92353 0
ltoes -39.3744 0 0
rfemur -19.0898 -0.0317707 18.598
rtibia 38.5407 0 0
rfoot -11.9203 -21.0056 0
rtoes -16.5351 0 0
lowerback 5.46686 1.56472 -0.596762
upperback -3.97949 2.17544 1.8841
thorax -7.33224 1.15615 2.05407
lowerneck -5.58426 -5.19505 -7.94637
upperneck 9.6405 -6.86273 6.06665
head 4.21908 -3.36801 2.69776
lclavicle 2.61196e-14 -1.84503e-14 0
lhumerus -33.3923 -17.7804 94.5881
lradius 50.5205 0 0
lwrist -9.51542 0 0
lhand -34.0591 390.696 0
lfingers 7.12502 0 0
lthumb -7.23659 -659.447 0
rclavicle 2.61196e-14 -1.84503e-14 0
rhumerus -35.4751 13.0981 -81.3398
rradius 48.7478 0 0
rwrist 1.5056 0 0
rhand -28.814 -393.758 0
rfingers 7.12502 0 0
rthumb -2.17206 296.272 0
3161
root 0.953915 16.9282 -33.3548 1085.99 5.00903 -3.95587
lfemur -18.3374 -2.56651 -8.1625
ltibia 35.0892 0 0
lfoot -16.3409 7.92367 0
ltoes -39.4222 0 0
rfemur -19.0943 -0.0347676 18.6002
rtibia 38.5439 0 0
rfoot -11.9208 -20.9873 0
rtoes -16.5354 0 0
lowerback 5.46036 1.56957 -0.597354
upperback -3.96642 2.18142 1.88011
thorax -7.31456 1.15884 2.04983
lowerneck -5.57894 -5.19409 -7.94831
upperneck 9.62282 -6.86019 6.05653
head 4.21626 -3.36745 2.69949
lclavicle 2.94708e-14 -1.56751e-14 0
lhumerus -33.3557 -17.777 94.5815
lradius 50.4303 0 0
lwrist -9.50622 0 0
lhand -34.0594 390.722 0
lfingers 7.12502 0 0
lthumb -7.23685 -659.421 0
rclavicle 2.94708e-14 -1.56751e-14 0
rhumerus -35.4611 13.0711 -81.3634
rradius 48.7171 0 0
rwrist 1.48797 0 0
rhand -28.7987 -393.727 0
rfingers 7.12502 0 0
rthumb -2.15722 296.303 0
3162
root 0.960742 16.9308 -33.3504 1085.99 4.9857 -3.95405
lfemur -18.3299 -2.54488 -8.1637
ltibia 35.0926 0 0
lfoot -16.3476 7.91706 0
ltoes -39.4688 0 0
rfemur -19.1062 -0.0416613 18.601
rtibia 38.558 0 0
rfoot -11.9258 -20.9702 0
rtoes -16.534 0 0
lowerback 5.45816 1.57406 -0.596237
upperback -3.95296 2.18712 1.87625
thorax -7.29889 1.16131 2.04471
lowerneck -5.56893 -5.19186 -7.94992
upperneck 9.59635 -6.85589 6.04503
head 4.21094 -3.36616 2.70224
lclavicle 3.26646e-14 -1.27964e-14 0
lhumerus -33.3131 -17.7883 94.581
lradius 50.3558 0 0
lwrist -9.4917 0 0
lhand -34.0547 390.75 0
lfingers 7.12502 0 0
lthumb -7.23234 -659.393 0
rclavicle 3.26646e-14 -1.27964e-14 0
rhumerus -35.4459 13.0612 -81.3868
rradius 48.7256 0 0
rwrist 1.45719 0 0
rhand -28.7833 -393.698 0
rfingers 7.12502 0 0
rthumb -2.14239 296.332 0
3163
root 0.967569 16.9335 -33.346 1085.99 4.96158 -3.94989
lfemur -18.3235 -2.52043 -8.16615
ltibia 35.0964 0 0
lfoot -16.355 7.90795 0
ltoes -39.5147 0 0
rfemur -19.1221 -0.0504652 18.6007
rtibia 38.5773 0 0
rfoot -11.9336 -20.9525 0
rtoes -16.5309 0 0
lowerback 5.45876 1.57867 -0.594036
upperback -3.94019 2.19313 1.87248
thorax -7.28559 1.16389 2.03897
lowerneck -5.55642 -5.18804 -7.95078
upperneck 9.56667 -6.84951 6.03217
head 4.20486 -3.36393 2.70556
lclavicle 3.56564e-14 -9.83696e-15 0
lhumerus -33.2636 -17.8014 94.5817
lradius 50.2729 0 0
lwrist -9.48117 0 0
lhand -34.0466 390.781 0
lfingers 7.12502 0 0
lthumb -7.22454 -659.362 0
rclavicle 3.56564e-14 -9.83696e-15 0
rhumerus -35.4296 13.0545 -81.4084
rradius 48.7444 0 0
rwrist 1.4195 0 0
rhand -28.7642 -393.668 0
rfingers 7.12502 0 0
rthumb -2.12391 296.361 0
3164
root 0.974396 16.9361 -33.3415 1086 4.93321 -3.94505
lfemur -18.3146 -2.4939 -8.17002
ltibia 35.0986 0 0
lfoot -16.3625 7.90057 0
ltoes -39.5601 0 0
rfemur -19.1384 -0.0591923 18.5995
rtibia 38.5963 0 0
rfoot -11.9425 -20.9327 0
rtoes -16.526 0 0
lowerback 5.46068 1.58386 -0.591375
upperback -3.92919 2.20002 1.86874
thorax -7.27499 1.16691 2.03286
lowerneck -5.54357 -5.18233 -7.95048
upperneck 9.53938 -6.84069 6.01796
head 4.19977 -3.36055 2.70904
lclavicle 3.84015e-14 -6.81976e-15 0
lhumerus -33.2063 -17.8033 94.5787
lradius 50.158 0 0
lwrist -9.48395 0 0
lhand -34.0366 390.812 0
lfingers 7.12502 0 0
lthumb -7.21492 -659.33 0
rclavicle 3.84015e-14 -6.81976e-15 0
rhumerus -35.4123 13.0371 -81.4268
rradius 48.7447 0 0
rwrist 1.38119 0 0
rhand -28.7375 -393.638 0
rfingers 7.12502 0 0
rthumb -2.09815 296.391 0
3165
root 0.981222 16.9388 -33.3371 1086 4.8971 -3.94117
lfemur -18.2997 -2.46602 -8.17546
ltibia 35.0968 0 0
lfoot -16.3692 7.89916 0
ltoes -39.6056 0 0
rfemur -19.152 -0.0658559 18.5973
rtibia 38.6094 0 0
rfoot -11.9508 -20.9089 0
rtoes -16.5194 0 0
lowerback 5.46242 1.59009 -0.58888
upperback -3.92104 2.20836 1.86499
thorax -7.26742 1.17069 2.02664
lowerneck -5.53258 -5.17442 -7.94859
upperneck 9.52009 -6.82912 6.00242
head 4.19743 -3.3558 2.71225
lclavicle 4.08555e-14 -3.76772e-15 0
lhumerus -33.1402 -17.7811 94.5671
lradius 49.987 0 0
lwrist -9.50935 0 0
lhand -34.0263 390.844 0
lfingers 7.12502 0 0
lthumb -7.20496 -659.299 0
rclavicle 4.08555e-14 -3.76772e-15 0
rhumerus -35.394 12.9952 -81.4401
rradius 48.6974 0 0
rwrist 1.3485 0 0
rhand -28.6995 -393.606 0
rfingers 7.12502 0 0
rthumb -2.06147 296.423 0
